<?xml version="1.0" encoding="UTF-8"?>
<svg width="140px" height="44px" viewBox="0 0 140 44" version="1.1" xmlns="http://www.w3.org/2000/svg" xmlns:xlink="http://www.w3.org/1999/xlink">
    <!-- Generator: Sketch 50.2 (55047) - http://www.bohemiancoding.com/sketch -->
    <title>site won copy</title>
    <desc>Created with Sketch.</desc>
    <defs></defs>
    <g id="Exploration" stroke="none" stroke-width="1" fill="none" fill-rule="evenodd">
        <g id="Bid-Sheet-Template-Creator" transform="translate(-52.000000, -379.000000)">
            <g id="Group-3" transform="translate(36.000000, 279.000000)">
                <g id="Group-7">
                    <g id="site-won-copy" transform="translate(16.000000, 100.000000)">
                        <path d="M17.6148459,43.1702951 C14.357587,43.1702951 11.2413904,42.6221575 8.26369153,41.5233329 C5.2885574,40.4219588 2.53399355,38.734205 0,36.4549725 L4.46526597,31.1801045 C6.51451784,32.9392436 8.58685265,34.287917 10.6771409,35.2261246 C12.7699938,36.1668816 15.1398421,36.6359854 17.7943798,36.6359854 C20.0872849,36.6359854 21.9057074,36.1566837 23.2522121,35.1955308 C24.6012816,34.2369275 25.2732515,32.9596395 25.2732515,31.3585679 L25.2732515,31.2387424 C25.2732515,30.4789983 25.1424482,29.8110353 24.8808416,29.232304 C24.6217997,28.6510232 24.137058,28.1028857 23.4343108,27.5827923 C22.7213046,27.062699 21.754386,26.5833973 20.5284255,26.1423378 C19.292206,25.7038277 17.6943538,25.2627682 15.7246098,24.8242582 C13.462482,24.3041648 11.4619607,23.7152356 9.70252795,23.0549211 C7.95335427,22.397156 6.47604628,21.5966202 5.2885574,20.6558632 C4.10363329,19.7176556 3.18801011,18.5678414 2.5647708,17.2089702 C1.9415315,15.8500989 1.62862946,14.2107851 1.62862946,12.2935784 L1.62862946,12.173753 C1.62862946,10.3738222 1.99026214,8.72431051 2.7058332,7.22776747 C3.42909857,5.72867496 4.41397055,4.44883747 5.67070825,3.38825502 C6.92744594,2.33022204 8.43553118,1.50164199 10.205223,0.899965403 C11.9646558,0.300838293 13.8933634,0 15.9862164,0 C19.0818948,0 21.8672359,0.45125744 24.3396749,1.35122284 C26.812114,2.24863877 29.1357963,3.55906998 31.3055924,5.27741752 L27.3250682,10.8531239 C25.3937957,9.45601042 23.4830415,8.38523006 21.5953702,7.64588171 C19.7051341,6.90653336 17.7943798,6.53685919 15.8656722,6.53685919 C13.6933113,6.53685919 12.0031274,7.01616088 10.7976851,7.97476425 C9.58967804,8.9359171 8.9869569,10.1137755 8.9869569,11.5134384 L8.9869569,11.6332638 C8.9869569,12.4337996 9.12801929,13.1425543 9.41014408,13.7620772 C9.69226887,14.3816001 10.205223,14.9399356 10.9490066,15.4396331 C11.7030492,15.9418801 12.7289575,16.4109839 14.0344258,16.8494939 C15.352718,17.288004 17.00956,17.7494593 19.0305994,18.228761 C21.2414318,18.7870965 23.2137406,19.4066194 24.9218779,20.0873298 C26.6300153,20.7680402 28.0585926,21.5966202 29.184527,22.5756194 C30.3104614,23.5546186 31.1747891,24.6942348 31.7595569,25.9944681 C32.3417598,27.292152 32.6315789,28.8014424 32.6315789,30.5197899 L32.6315789,30.6396153 C32.6315789,32.5976137 32.2596872,34.3567529 31.5261627,35.9170329 C30.7823792,37.4747633 29.7564709,38.7953925 28.4407435,39.8738213 C27.1327103,40.9522501 25.5451172,41.7731817 23.7061765,42.3315171 C21.8569768,42.8924021 19.8256783,43.1702951 17.6148459,43.1702951" id="Fill-5" fill="#ED1C24"></path>
                        <polygon id="Fill-6" fill="#ED1C24" points="45.2631579 43.1702951 53.6842105 43.1702951 53.6842105 0 45.2631579 0"></polygon>
                        <polyline id="Fill-7" fill="#ED1C24" points="77.7848874 7.0307108 64.2105263 7.0307108 64.2105263 0 98.9473684 0 98.9473684 7.0307108 85.3678064 7.0307108 85.3678064 43.1702951 77.7848874 43.1702951 77.7848874 7.0307108"></polyline>
                        <path d="M136.980745,18.9528125 L136.980745,25.5264529 L115.789474,25.5264529 L115.789474,36.5991724 L140,36.5991724 L140,43.1702951 L108.421053,43.1702951 L108.421053,18.9528125 C117.94095,18.9528125 127.463415,18.9528125 136.980745,18.9528125" id="Fill-8" fill="#ED1C24"></path>
                        <path d="M108.421053,0 L140,0 L140,7.37053819 C129.473684,7.37053819 118.947368,7.37053819 108.421053,7.37053819 L108.421053,0" id="Fill-9" fill="#FFFFFF"></path>
                    </g>
                </g>
            </g>
        </g>
    </g>
</svg>