<?xml version="1.0" encoding="UTF-8"?>
<svg width="64px" height="64px" viewBox="0 0 64 64" version="1.1" xmlns="http://www.w3.org/2000/svg" xmlns:xlink="http://www.w3.org/1999/xlink">
    <!-- Generator: Sketch 48.2 (47327) - http://www.bohemiancoding.com/sketch -->
    <title>location-marker-outline</title>
    <desc>Created with Sketch.</desc>
    <defs></defs>
    <g id="Admin---Dashboard" stroke="none" stroke-width="1" fill="none" fill-rule="evenodd" transform="translate(-20.000000, -663.000000)">
        <g id="location-marker-outline" transform="translate(20.000000, 663.000000)" fill="#FFFFFF" fill-rule="nonzero">
            <path d="M40,18 C40,13.6 36.4,10 32,10 C27.6,10 24,13.6 24,18 C24,22.4 27.6,26 32,26 C36.4,26 40,22.4 40,18 Z M28,18 C28,15.8 29.8,14 32,14 C34.2,14 36,15.8 36,18 C36,20.2 34.2,22 32,22 C29.8,22 28,20.2 28,18 Z" id="Shape"></path>
            <path d="M30.5,49.3 L32,51.2 L33.5,49.3 C33.9,48.8 34.5,48.1 35.2,47.3 C40.4,41.5 51,29.4 51,19.2 C51,8.6 42.5,0 32,0 C21.5,0 13,8.6 13,19.2 C13,29.6 23.8,41.7 28.9,47.6 C29.6,48.2 30.1,48.8 30.5,49.3 Z M32,4 C40.3,4 47,10.8 47,19.2 C47,28 36.7,39.7 32.3,44.7 C32.2,44.8 32.1,44.9 32,45 C32,45 32,44.9 31.9,44.9 C27.5,39.8 17,28 17,19.2 C17,10.8 23.7,4 32,4 Z" id="Shape"></path>
            <polygon id="Shape" points="55.5 35 48 35 48 39 52.5 39 58.4 60 5.6 60 11.5 39 16 39 16 35 8.5 35 0.4 64 63.6 64"></polygon>
        </g>
    </g>
</svg>