<?xml version="1.0" encoding="UTF-8"?>
<svg width="463px" height="255px" viewBox="0 0 463 255" version="1.1" xmlns="http://www.w3.org/2000/svg" xmlns:xlink="http://www.w3.org/1999/xlink">
    <!-- Generator: Sketch 48.2 (47327) - http://www.bohemiancoding.com/sketch -->
    <title>camera</title>
    <desc>Created with Sketch.</desc>
    <defs></defs>
    <g id="Fly-Site-View-2" stroke="none" stroke-width="1" fill="none" fill-rule="evenodd" transform="translate(-97.000000, -616.000000)">
        <g id="camera" transform="translate(97.000000, 616.000000)" fill="#FFFFFF" fill-rule="nonzero">
            <path d="M231.5,168 C214.131,168 200,182.131 200,199.5 C200,216.869 214.131,231 231.5,231 C248.869,231 263,216.869 263,199.5 C263,182.131 248.869,168 231.5,168 Z M231.5,216 C222.402,216 215,208.598 215,199.5 C215,190.402 222.402,183 231.5,183 C240.598,183 248,190.402 248,199.5 C248,208.598 240.598,216 231.5,216 Z" id="Shape"></path>
            <path d="M455.5,16 L375,16 L375,7.5 C375,3.358 371.642,0 367.5,0 C363.358,0 360,3.358 360,7.5 L360,16 L279.5,16 C275.358,16 272,19.358 272,23.5 C272,27.642 275.358,31 279.5,31 L344,31 L344,48.025 C343.834,48.014 343.669,48 343.5,48 L119.5,48 C119.331,48 119.166,48.014 119,48.025 L119,31 L183.5,31 C187.642,31 191,27.642 191,23.5 C191,19.358 187.642,16 183.5,16 L103,16 L103,7.5 C103,3.358 99.642,0 95.5,0 C91.358,0 88,3.358 88,7.5 L88,16 L7.5,16 C3.358,16 0,19.358 0,23.5 C0,27.642 3.358,31 7.5,31 L72,31 L72,63.5 C72,76.458 82.542,87 95.5,87 C108.458,87 119,76.458 119,63.5 L119,62.975 C119.166,62.986 119.331,63 119.5,63 L161.843,63 L168.986,88 L162.05,88 C152.636,88 144.158,93.591 140.45,102.243 L122.554,144 L111.5,144 C107.358,144 104,147.358 104,151.5 C104,155.642 107.358,159 111.5,159 L143.5,159 C147.642,159 151,155.642 151,151.5 C151,147.358 147.642,144 143.5,144 L138.874,144 L154.238,108.151 C155.579,105.022 158.646,103 162.051,103 L174.204,103 C179.711,112.683 190.137,119 201.604,119 L208,119 L208,138.757 C202.799,141.522 198.694,146.203 196.738,152.069 L194.208,159.658 C194.14,159.863 193.949,160 193.734,160 L175.5,160 C162.542,160 152,170.542 152,183.5 L152,231.5 C152,244.458 162.542,255 175.5,255 L287.5,255 C300.458,255 311,244.458 311,231.5 L311,183.5 C311,170.542 300.458,160 287.5,160 L269.266,160 C269.051,160 268.86,159.863 268.792,159.658 L266.262,152.068 C264.306,146.202 260.201,141.522 255,138.757 L255,119 L261.397,119 C272.864,119 283.29,112.683 288.797,103 L300.95,103 C304.355,103 307.421,105.022 308.763,108.152 L324.126,144 L319.5,144 C315.358,144 312,147.358 312,151.5 C312,155.642 315.358,159 319.5,159 L351.5,159 C355.642,159 359,155.642 359,151.5 C359,147.358 355.642,144 351.5,144 L340.446,144 L322.55,102.243 C318.842,93.591 310.364,88 300.95,88 L294.015,88 L301.158,63 L343.5,63 C343.669,63 343.834,62.986 344,62.975 L344,63.5 C344,76.458 354.542,87 367.5,87 C380.458,87 391,76.458 391,63.5 L391,31 L455.5,31 C459.642,31 463,27.642 463,23.5 C463,19.358 459.642,16 455.5,16 Z M95.5,72 C90.813,72 87,68.187 87,63.5 L87,31 L104,31 L104,63.5 C104,68.187 100.187,72 95.5,72 Z M269.266,175 L287.5,175 C292.187,175 296,178.813 296,183.5 L296,231.5 C296,236.187 292.187,240 287.5,240 L175.5,240 C170.813,240 167,236.187 167,231.5 L167,183.5 C167,178.813 170.813,175 175.5,175 L193.734,175 C200.416,175 206.325,170.741 208.439,164.401 L210.969,156.812 C212.128,153.335 215.368,150.999 219.033,150.999 L243.969,150.999 C247.634,150.999 250.874,153.335 252.033,156.811 L254.563,164.4 C256.675,170.741 262.584,175 269.266,175 Z M240,136 L223,136 L223,119 L240,119 L240,136 Z M277.262,92.033 C275.249,99.079 268.725,104 261.397,104 L201.603,104 C194.275,104 187.751,99.079 185.738,92.033 L177.443,63 L224,63 L224,79.5 C224,83.642 227.358,87 231.5,87 C235.642,87 239,83.642 239,79.5 L239,63 L285.557,63 L277.262,92.033 Z M376,63.5 C376,68.187 372.187,72 367.5,72 C362.813,72 359,68.187 359,63.5 L359,31 L376,31 L376,63.5 Z" id="Shape"></path>
        </g>
    </g>
</svg>