<?xml version="1.0" encoding="UTF-8"?>
<svg width="97px" height="88px" viewBox="0 0 97 88" version="1.1" xmlns="http://www.w3.org/2000/svg" xmlns:xlink="http://www.w3.org/1999/xlink">
    <!-- Generator: Sketch 48.2 (47327) - http://www.bohemiancoding.com/sketch -->
    <title>noun_30459_cc</title>
    <desc>Created with Sketch.</desc>
    <defs></defs>
    <g id="Admin---Dashboard" stroke="none" stroke-width="1" fill="none" fill-rule="evenodd" transform="translate(-353.000000, -807.000000)">
        <g id="noun_30459_cc" transform="translate(353.000000, 807.000000)" fill="#FFFFFF" fill-rule="nonzero">
            <g id="Group">
                <path d="M8.612,48.383 L70.039,48.383 C71.378,48.383 72.46,47.302 72.46,45.966 C72.46,44.63 71.378,43.549 70.039,43.549 L8.765,43.549 L23.148,28.132 C24.093,27.19 24.093,25.658 23.148,24.715 C22.203,23.77 20.673,23.77 19.729,24.715 L0,46.017 L19.427,67.472 C19.9,67.943 20.518,68.178 21.137,68.178 C21.756,68.178 22.374,67.943 22.847,67.472 C23.792,66.526 23.792,64.996 22.847,64.051 L8.612,48.383 Z" id="Shape"></path>
                <path d="M87.071,0.04 L48.372,0.04 C43.036,0.04 38.696,4.377 38.696,9.707 L38.696,31.466 L43.534,31.466 L43.534,9.707 C43.534,7.045 45.703,4.872 48.372,4.872 L87.071,4.872 C89.739,4.872 91.908,7.045 91.908,9.707 L91.908,77.391 C91.908,80.057 89.739,82.226 87.071,82.226 L48.372,82.226 C45.704,82.226 43.534,80.057 43.534,77.391 L43.534,60.469 L38.696,60.469 L38.696,77.391 C38.696,82.725 43.036,87.061 48.372,87.061 L87.071,87.061 C92.407,87.061 96.747,82.725 96.747,77.391 L96.747,9.707 C96.747,4.377 92.407,0.04 87.071,0.04 Z" id="Shape"></path>
            </g>
        </g>
    </g>
</svg>