<svg xmlns="http://www.w3.org/2000/svg" width="10" height="10" viewBox="0 0 10 10">
    <g fill="#6B6B6B" fill-rule="nonzero">
        <path d="M9.914 2.846L5.086.026a.154.154 0 0 0-.172 0L.086 2.846A.186.186 0 0 0 0 3.004c0 .07.034.124.086.159l4.828 2.82A.153.153 0 0 0 5 6c.034 0 .052 0 .086-.018l4.828-2.819A.186.186 0 0 0 10 3.004a.186.186 0 0 0-.086-.158z"/>
        <path d="M9.914 6.73L8.707 6 5.259 8.1A.466.466 0 0 1 5 8.174a.466.466 0 0 1-.259-.074L1.293 6l-1.207.73A.195.195 0 0 0 0 6.896c0 .073.034.128.086.164l4.828 2.923A.148.148 0 0 0 5 10c.034 0 .052 0 .086-.018l4.828-2.923A.195.195 0 0 0 10 6.895a.195.195 0 0 0-.086-.164z"/>
        <path d="M9.914 4.73L8.707 4 5.259 6.1A.466.466 0 0 1 5 6.174a.466.466 0 0 1-.259-.074L1.293 4l-1.207.73A.195.195 0 0 0 0 4.896c0 .073.034.128.086.164l4.828 2.923A.148.148 0 0 0 5 8c.034 0 .052 0 .086-.018l4.828-2.923A.195.195 0 0 0 10 4.895a.195.195 0 0 0-.086-.164z"/>
    </g>
</svg>
