<?xml version="1.0" encoding="UTF-8"?>
<svg width="22px" height="28px" viewBox="0 0 22 28" version="1.1" xmlns="http://www.w3.org/2000/svg" xmlns:xlink="http://www.w3.org/1999/xlink">
    <!-- Generator: Sketch 48.2 (47327) - http://www.bohemiancoding.com/sketch -->
    <title>site_logo</title>
    <desc>Created with Sketch.</desc>
    <defs></defs>
    <g id="Blank-Map" stroke="none" stroke-width="1" fill="none" fill-rule="evenodd" transform="translate(-108.000000, -429.000000)">
        <g id="site_logo" transform="translate(108.000000, 429.000000)" fill="#FFFFFF">
            <path d="M19.575,4.843 C23.026,9.149 22.758,15.502 18.771,19.489 L10.999,27.262 L3.226,19.489 C-0.761,15.502 -1.029,9.149 2.422,4.843 C2.466,5.154 2.608,5.454 2.847,5.693 C3.128,5.974 3.493,6.12 3.862,6.132 C2.656,7.671 1.937,9.61 1.937,11.717 C1.937,16.722 5.994,20.779 10.999,20.779 C16.003,20.779 20.06,16.722 20.06,11.717 C20.06,9.61 19.342,7.671 18.135,6.132 C18.504,6.12 18.869,5.974 19.15,5.693 C19.389,5.454 19.531,5.154 19.575,4.843" id="Fill-1"></path>
            <path d="M17.411,5.305 C17.784,5.677 18.389,5.677 18.762,5.305 C19.135,4.932 19.135,4.327 18.762,3.954 C17.12,2.312 14.961,1.188 12.55,0.847 C12.54,0.845 12.53,0.844 12.52,0.843 C12.015,0.773 11.507,0.738 10.999,0.738 C10.49,0.738 9.982,0.773 9.477,0.843 C9.467,0.844 9.457,0.845 9.447,0.847 C7.036,1.188 4.877,2.312 3.235,3.954 C2.862,4.327 2.862,4.932 3.235,5.305 C3.608,5.677 4.213,5.677 4.586,5.305 L4.591,5.309 C6.231,3.67 8.496,2.655 10.999,2.655 C13.501,2.655 15.766,3.67 17.406,5.309 L17.411,5.305" id="Fill-2"></path>
            <path d="M10.999,18.055 C7.977,18.055 5.449,15.94 4.814,13.109 C4.741,12.78 4.456,12.553 4.119,12.553 C3.895,12.553 3.702,12.645 3.562,12.82 C3.422,12.995 3.374,13.203 3.423,13.421 C4.2,16.889 7.297,19.48 10.999,19.48 C14.701,19.48 17.797,16.889 18.574,13.421 C18.623,13.203 18.575,12.995 18.435,12.82 C18.295,12.645 18.102,12.553 17.879,12.553 L17.878,12.553 C17.541,12.553 17.257,12.78 17.183,13.109 C16.548,15.94 14.02,18.055 10.999,18.055" id="Fill-3"></path>
            <path d="M4.814,10.324 C5.449,7.494 7.977,5.379 10.999,5.379 C14.02,5.379 16.548,7.494 17.183,10.324 C17.257,10.654 17.541,10.881 17.878,10.881 L17.879,10.881 C18.102,10.881 18.295,10.788 18.435,10.614 C18.575,10.439 18.623,10.231 18.574,10.013 C17.797,6.545 14.701,3.954 10.999,3.954 C7.297,3.954 4.2,6.545 3.423,10.013 C3.374,10.231 3.422,10.439 3.562,10.614 C3.702,10.788 3.895,10.881 4.119,10.881 C4.456,10.881 4.741,10.654 4.814,10.324" id="Fill-4"></path>
        </g>
    </g>
</svg>